<?xml version="1.0" encoding="UTF-8"?>
<svg width="22px" height="18px" viewBox="0 0 22 18" version="1.1" xmlns="http://www.w3.org/2000/svg" xmlns:xlink="http://www.w3.org/1999/xlink">
    <!-- Generator: Sketch 53 (72520) - https://sketchapp.com -->
    <title>Cart</title>
    <desc>Created with Sketch.</desc>
    <g id="Symbols" stroke="none" stroke-width="1" fill="none" fill-rule="evenodd">
        <g id="Icons-/-Cart-/-Cart-Empty-+-Label-/-Mobile" transform="translate(-12.000000, -12.000000)" fill="#FFFFFF" fill-rule="nonzero">
            <path d="M31.1307826,24.9245478 L18.6595226,24.9245478 C18.3552153,24.9245478 18.0852284,24.73183 17.9906567,24.4468776 L14.5738731,14.1271014 L12.4551622,13.339733 C12.0913663,13.2055054 11.9083243,12.8058221 12.0456058,12.4481319 C12.1828872,12.0904416 12.5886303,11.9089719 12.9524262,12.0454491 L15.3868845,12.9490482 C15.5867054,13.0232858 15.7415284,13.1822593 15.8078811,13.3824758 L19.1705147,23.540279 L30.5755553,23.540279 L32.4021617,16.0805251 L18.1698853,16.0805251 C17.7809211,16.0805251 17.4651737,15.770077 17.4651737,15.3883907 C17.4651737,15.0059546 17.7809211,14.6962564 18.1698853,14.6962564 L33.2960167,14.6962564 C33.5118537,14.6962564 33.7162506,14.7929902 33.848956,14.9594624 C33.9824241,15.1266845 34.0312353,15.3441481 33.9801361,15.5503637 L31.814902,24.3943864 C31.7393972,24.7055844 31.4564448,24.9245478 31.1307826,24.9245478 Z M30.1640159,20.5106351 L19.4392814,20.5106351 C19.0510799,20.5106351 18.7360951,20.2009368 18.7360951,19.8185007 C18.7360951,19.4360646 19.0510799,19.1263663 19.4392814,19.1263663 L30.1640159,19.1263663 C30.5529801,19.1263663 30.8679649,19.4360646 30.8679649,19.8185007 C30.8679649,20.2009368 30.5529801,20.5106351 30.1640159,20.5106351 Z M19.657864,27.2697061 C19.2811026,27.2697061 18.9737446,27.5719056 18.9737446,27.9423437 C18.9737446,28.3135317 19.2811026,28.6157312 19.657864,28.6157312 C20.0353881,28.6157312 20.3419834,28.3135317 20.3419834,27.9423437 C20.3419834,27.5719056 20.0353881,27.2697061 19.657864,27.2697061 Z M19.657864,30 C18.5039369,30 17.5658467,29.0769042 17.5658467,27.9423437 C17.5658467,26.8085331 18.5039369,25.8854373 19.657864,25.8854373 C20.8117912,25.8854373 21.7498813,26.8085331 21.7498813,27.9423437 C21.7498813,29.0769042 20.8117912,30 19.657864,30 Z M29.4869894,27.2697061 C29.110228,27.2697061 28.8036327,27.5719056 28.8036327,27.9423437 C28.8036327,28.3135317 29.110228,28.6157312 29.4869894,28.6157312 C29.8645135,28.6157312 30.1711088,28.3135317 30.1711088,27.9423437 C30.1711088,27.5719056 29.8645135,27.2697061 29.4869894,27.2697061 Z M29.4869894,30 C28.333825,30 27.3949721,29.0769042 27.3949721,27.9423437 C27.3949721,26.8085331 28.333825,25.8854373 29.4869894,25.8854373 C30.6416792,25.8854373 31.5797694,26.8085331 31.5797694,27.9423437 C31.5797694,29.0769042 30.6416792,30 29.4869894,30 Z" id="Cart"></path>
        </g>
    </g>
</svg>