<svg width="34" height="24" viewBox="0 0 34 24" fill="none" xmlns="http://www.w3.org/2000/svg">
<path d="M27.7963 14.8544C28.1942 14.2168 28.4281 13.4667 28.4281 12.6613C28.4281 10.3684 26.5629 8.50274 24.2699 8.50274C23.9407 8.50274 23.6219 8.54525 23.3146 8.61788C22.4932 7.78072 21.5091 7.10789 20.4365 6.64788C20.8342 6.01041 21.0679 5.26055 21.0679 4.45547C21.0679 2.16251 19.2027 0.297272 16.9097 0.297272C14.6168 0.297272 12.7515 2.16251 12.7515 4.45547C12.7515 5.26033 12.9851 6.00997 13.3826 6.64732C12.3236 7.10115 11.356 7.76197 10.5413 8.5835C10.2786 8.5313 10.0074 8.50274 9.72966 8.50274C7.43669 8.50274 5.57146 10.3684 5.57146 12.6613C5.57146 13.4669 5.80544 14.2171 6.20354 14.8547C2.92444 16.2568 0.758179 19.4979 0.758179 23.1027C0.758179 23.434 1.02693 23.7027 1.35818 23.7027H18.1015H32.6418C32.973 23.7027 33.2418 23.434 33.2418 23.1027C33.2418 19.4966 31.0762 16.2568 27.7963 14.8544ZM27.2281 12.6613C27.2281 14.2926 25.9011 15.6195 24.2699 15.6195C22.6386 15.6195 21.3117 14.2926 21.3117 12.6613C21.3117 11.0301 22.6386 9.70274 24.2699 9.70274C25.9011 9.70274 27.2281 11.0301 27.2281 12.6613ZM16.9097 1.49727C18.541 1.49727 19.8679 2.82422 19.8679 4.45547C19.8679 6.08672 18.541 7.41407 16.9097 7.41407C15.2785 7.41407 13.9515 6.08672 13.9515 4.45547C13.9515 2.82422 15.2785 1.49727 16.9097 1.49727ZM14.2086 7.61087C14.936 8.2346 15.8786 8.61407 16.9097 8.61407C17.9409 8.61407 18.8835 8.23458 19.611 7.6108C20.524 7.94954 21.3739 8.46429 22.1029 9.11888C20.9109 9.85093 20.1117 11.1629 20.1117 12.6613C20.1117 13.4675 20.346 14.2183 20.7447 14.8563C19.2547 15.495 17.9554 16.5362 17.0015 17.8536C16.0644 16.5545 14.7811 15.5063 13.2563 14.8543C13.6543 14.2168 13.8883 13.4667 13.8883 12.6613C13.8883 11.1182 13.0414 9.77149 11.7899 9.05384C12.5018 8.43016 13.3238 7.93921 14.2086 7.61087ZM9.72966 9.70274C11.3609 9.70274 12.6883 11.0301 12.6883 12.6613C12.6883 14.2926 11.3609 15.6195 9.72966 15.6195C8.09841 15.6195 6.77146 14.2926 6.77146 12.6613C6.77146 11.0301 8.09841 9.70274 9.72966 9.70274ZM1.98123 22.5027C2.21372 19.4978 4.17952 16.8735 7.02908 15.817C7.7564 16.4403 8.6988 16.8195 9.72966 16.8195C10.7605 16.8195 11.703 16.4404 12.4304 15.817C15.2801 16.8736 17.2462 19.4969 17.4785 22.5027H1.98123ZM18.6778 22.5027C18.5937 21.246 18.2475 20.0461 17.685 18.9654C17.691 18.9569 17.699 18.9507 17.7047 18.9418C18.6156 17.508 19.9854 16.4057 21.5699 15.8175C22.2972 16.4406 23.2393 16.8195 24.2699 16.8195C25.3007 16.8195 26.243 16.4404 26.9704 15.8171C29.8204 16.8736 31.7864 19.497 32.0187 22.5027H18.6778Z" fill="white"/>
</svg>
